<svg xmlns="http://www.w3.org/2000/svg" width="161" height="24" viewBox="0 0 161 24" fill="none">
<path d="M150.623 19.2842V8.67576H153.205V9.96652H153.351C153.789 9.17996 154.872 8.41357 156.433 8.41357C158.891 8.41357 160.39 10.0875 160.39 12.3464V19.2842H157.683V13.0321C157.683 11.7413 156.829 10.8741 155.58 10.8741C154.268 10.8741 153.33 11.8825 153.33 13.2136V19.2842H150.623Z" fill="#0A0F39"/>
<path d="M147.871 7.73191C146.892 7.73191 146.205 7.14703 146.205 6.19913C146.205 5.29157 146.892 4.68652 147.871 4.68652C148.85 4.68652 149.537 5.29157 149.537 6.19913C149.537 7.14703 148.85 7.73191 147.871 7.73191ZM146.517 19.2841V8.67569H149.225V19.2841H146.517Z" fill="#0A0F39"/>
<path d="M135.697 19.5464C132.469 19.5464 130.178 17.2069 130.178 14.0405C130.178 10.6926 132.489 8.41357 135.697 8.41357C139.216 8.41357 141.132 10.9346 141.132 13.9195V14.7464H132.802C132.885 16.3598 134.031 17.4489 135.78 17.4489C137.113 17.4489 138.133 16.8438 138.508 15.9766H141.028C140.487 18.1346 138.529 19.5464 135.697 19.5464ZM132.843 12.8909H138.55C138.425 11.459 137.279 10.5111 135.697 10.5111C134.176 10.5111 133.01 11.5598 132.843 12.8909Z" fill="#0A0F39"/>
<path d="M117.535 23.2377V8.67576H120.201V10.027H120.347C120.638 9.58332 121.638 8.41357 123.637 8.41357C126.699 8.41357 128.802 10.6321 128.802 13.9396C128.802 17.2472 126.719 19.5464 123.72 19.5464C121.784 19.5464 120.742 18.4976 120.388 17.9128H120.243V23.2377H117.535ZM123.116 17.1665C124.866 17.1665 126.053 15.8556 126.053 13.98C126.053 12.0438 124.866 10.7934 123.096 10.7934C121.305 10.7934 120.18 12.185 120.18 13.98C120.18 15.9564 121.43 17.1665 123.116 17.1665Z" fill="#0A0F39"/>
<path d="M98.0735 19.5464C94.8455 19.5464 92.5547 17.2069 92.5547 14.0405C92.5547 10.6926 94.8664 8.41357 98.0735 8.41357C101.593 8.41357 103.509 10.9346 103.509 13.9195V14.7464H95.1787C95.2621 16.3598 96.4075 17.4489 98.1568 17.4489C99.4897 17.4489 100.51 16.8438 100.885 15.9766H103.405C102.863 18.1346 100.906 19.5464 98.0735 19.5464ZM95.2204 12.8909H100.927C100.802 11.459 99.6563 10.5111 98.0735 10.5111C96.5533 10.5111 95.387 11.5598 95.2204 12.8909Z" fill="#0A0F39"/>
<path d="M80.1016 19.2841V16.8025L87.6822 7.23067V7.08469H80.3723V4.68652H91.1393V7.14725L83.5587 16.7191V16.8859H91.1809V19.2841H80.1016Z" fill="#0A0F39"/>
<path d="M68.9531 19.2842V8.67576H71.5355V9.96652H71.6813C72.1187 9.17996 73.2016 8.41357 74.7635 8.41357C77.221 8.41357 78.7205 10.0875 78.7205 12.3464V19.2842H76.0131V13.0321C76.0131 11.7413 75.1592 10.8741 73.9097 10.8741C72.5977 10.8741 71.6605 11.8825 71.6605 13.2136V19.2842H68.9531Z" fill="#0A0F39"/>
<path d="M62.1399 19.5464C58.9119 19.5464 56.6211 17.2069 56.6211 14.0405C56.6211 10.6926 58.9328 8.41357 62.1399 8.41357C65.6595 8.41357 67.5755 10.9346 67.5755 13.9195V14.7464H59.2452C59.3285 16.3598 60.4739 17.4489 62.2233 17.4489C63.5561 17.4489 64.5766 16.8438 64.9514 15.9766H67.4714C66.9299 18.1346 64.9723 19.5464 62.1399 19.5464ZM59.2868 12.8909H64.9931C64.8681 11.459 63.7227 10.5111 62.1399 10.5111C60.6197 10.5111 59.4534 11.5598 59.2868 12.8909Z" fill="#0A0F39"/>
<path d="M43.9805 23.2226V8.63871H46.6462V10.027H46.792C47.0835 9.58332 48.0832 8.41357 50.0824 8.41357C53.1439 8.41357 55.2473 10.6321 55.2473 13.9396C55.2473 17.2472 53.1647 19.5464 50.1658 19.5464C48.2289 19.5464 47.1877 18.4976 46.8336 17.9128H46.6878V23.2226H43.9805ZM49.5618 17.1665C51.3112 17.1665 52.4983 15.8556 52.4983 13.98C52.4983 12.0438 51.3112 10.7934 49.541 10.7934C47.75 10.7934 46.6254 12.185 46.6254 13.98C46.6254 15.9564 47.8749 17.1665 49.5618 17.1665Z" fill="#0A0F39"/>
<path d="M34.6217 19.5464C30.0464 19.5464 26.6797 16.3069 26.6797 11.9597C26.6797 7.65434 30.068 4.37305 34.6433 4.37305C39.2186 4.37305 42.6069 7.69614 42.6069 11.9597C42.6069 16.2651 39.197 19.5464 34.6217 19.5464ZM34.6433 16.8921C37.5352 16.8921 39.6071 14.8021 39.6071 11.9597C39.6071 9.15914 37.5352 7.02734 34.6433 7.02734C31.7298 7.02734 29.6579 9.15914 29.6579 11.9597C29.6579 14.8021 31.7298 16.8921 34.6433 16.8921Z" fill="#0A0F39"/>
<rect x="142.51" y="4.625" width="2.62657" height="14.6594" fill="#0A0F39"/>
<path d="M104.887 23.2377V8.67576H107.552V10.027H107.698C107.99 9.58332 108.989 8.41357 110.989 8.41357C114.05 8.41357 116.154 10.6321 116.154 13.9396C116.154 17.2472 114.071 19.5464 111.072 19.5464C109.135 19.5464 108.094 18.4976 107.74 17.9128H107.594V23.2377H104.887ZM110.468 17.1665C112.217 17.1665 113.405 15.8556 113.405 13.98C113.405 12.0438 112.217 10.7934 110.447 10.7934C108.656 10.7934 107.532 12.185 107.532 13.98C107.532 15.9564 108.781 17.1665 110.468 17.1665Z" fill="#0A0F39"/>
<path d="M0 23.2589C2.58163 18.9332 4.77534 15.3658 7.56356 10.4764C8.54845 8.82648 10.2503 7.80127 12.3512 7.80127H15.6523L6.43351 23.2589H0Z" fill="#2E99FF"/>
<path d="M0.03125 0.740234H19.8394L16.4549 6.45503H0.03125V0.740234Z" fill="#4F56FA"/>
<path d="M9.95129 19.6998C10.6962 18.4245 11.8935 17.6323 13.5706 17.6323L19.8413 17.6157V23.2593H7.82617C8.57842 22.0099 9.23162 20.9318 9.95129 19.6998Z" fill="#09C2FF"/>
</svg>