<svg width="346" height="50" viewBox="0 0 346 50" fill="none" xmlns="http://www.w3.org/2000/svg">
<path d="M324.93 41.1746V17.6202H330.501V20.4862H330.816C331.759 18.7397 334.095 17.0381 337.465 17.0381C342.766 17.0381 346.001 20.7548 346.001 25.7702V41.1746H340.16V27.2927C340.16 24.4268 338.318 22.5013 335.623 22.5013C332.792 22.5013 330.771 24.7403 330.771 27.6958V41.1746H324.93Z" fill="black"/>
<path d="M318.996 15.524C316.884 15.524 315.402 14.2254 315.402 12.1207C315.402 10.1056 316.884 8.76221 318.996 8.76221C321.107 8.76221 322.59 10.1056 322.59 12.1207C322.59 14.2254 321.107 15.524 318.996 15.524ZM316.076 41.1739V17.6195H321.916V41.1739H316.076Z" fill="black"/>
<path d="M292.732 41.7567C285.769 41.7567 280.827 36.5622 280.827 29.5318C280.827 22.0982 285.813 17.0381 292.732 17.0381C300.325 17.0381 304.458 22.6356 304.458 29.2631V31.0991H286.487C286.667 34.6815 289.138 37.0996 292.912 37.0996C295.787 37.0996 297.989 35.7562 298.797 33.8307H304.233C303.065 38.6221 298.842 41.7567 292.732 41.7567ZM286.577 26.9793H298.887C298.618 23.7999 296.147 21.6952 292.732 21.6952C289.453 21.6952 286.937 24.0238 286.577 26.9793Z" fill="black"/>
<path d="M253.553 49.9528V17.6202H259.304V20.6205H259.618C260.247 19.6353 262.404 17.0381 266.717 17.0381C273.321 17.0381 277.858 21.9639 277.858 29.3079C277.858 36.6518 273.366 41.7567 266.896 41.7567C262.718 41.7567 260.472 39.4282 259.708 38.1295H259.394V49.9528H253.553ZM265.593 36.4727C269.367 36.4727 271.928 33.562 271.928 29.3974C271.928 25.0985 269.367 22.3221 265.549 22.3221C261.685 22.3221 259.259 25.412 259.259 29.3974C259.259 33.7859 261.954 36.4727 265.593 36.4727Z" fill="black"/>
<path d="M211.572 41.7567C204.609 41.7567 199.667 36.5622 199.667 29.5318C199.667 22.0982 204.654 17.0381 211.572 17.0381C219.165 17.0381 223.298 22.6356 223.298 29.2631V31.0991H205.328C205.507 34.6815 207.978 37.0996 211.752 37.0996C214.627 37.0996 216.829 35.7562 217.638 33.8307H223.074C221.906 38.6221 217.682 41.7567 211.572 41.7567ZM205.418 26.9793H217.727C217.458 23.7999 214.987 21.6952 211.572 21.6952C208.293 21.6952 205.777 24.0238 205.418 26.9793Z" fill="black"/>
<path d="M172.797 41.1738V35.6638L189.151 14.4111V14.087H173.381V8.76221H196.608V14.2259L180.255 35.4786V35.849H196.698V41.1738H172.797Z" fill="black"/>
<path d="M148.747 41.1746V17.6202H154.318V20.4862H154.632C155.576 18.7397 157.912 17.0381 161.282 17.0381C166.583 17.0381 169.818 20.7548 169.818 25.7702V41.1746H163.977V27.2927C163.977 24.4268 162.135 22.5013 159.44 22.5013C156.609 22.5013 154.588 24.7403 154.588 27.6958V41.1746H148.747Z" fill="black"/>
<path d="M134.051 41.7567C127.087 41.7567 122.146 36.5622 122.146 29.5318C122.146 22.0982 127.132 17.0381 134.051 17.0381C141.644 17.0381 145.777 22.6356 145.777 29.2631V31.0991H127.806C127.986 34.6815 130.457 37.0996 134.231 37.0996C137.106 37.0996 139.307 35.7562 140.116 33.8307H145.552C144.384 38.6221 140.161 41.7567 134.051 41.7567ZM127.896 26.9793H140.206C139.936 23.7999 137.465 21.6952 134.051 21.6952C130.771 21.6952 128.255 24.0238 127.896 26.9793Z" fill="black"/>
<path d="M94.873 49.9192V17.538H100.624V20.6205H100.938C101.567 19.6353 103.724 17.0381 108.036 17.0381C114.641 17.0381 119.178 21.9639 119.178 29.3079C119.178 36.6518 114.686 41.7567 108.216 41.7567C104.038 41.7567 101.792 39.4282 101.028 38.1295H100.713V49.9192H94.873ZM106.913 36.4727C110.687 36.4727 113.248 33.562 113.248 29.3974C113.248 25.0985 110.687 22.3221 106.868 22.3221C103.005 22.3221 100.579 25.412 100.579 29.3974C100.579 33.7859 103.274 36.4727 106.913 36.4727Z" fill="black"/>
<path d="M74.6885 41.7565C64.8185 41.7565 57.5557 34.5637 57.5557 24.9115C57.5557 15.352 64.8651 8.06641 74.7351 8.06641C84.6051 8.06641 91.9145 15.4448 91.9145 24.9115C91.9145 34.4709 84.5585 41.7565 74.6885 41.7565ZM74.7351 35.8631C80.9737 35.8631 85.4431 31.2226 85.4431 24.9115C85.4431 18.6932 80.9737 13.9599 74.7351 13.9599C68.4499 13.9599 63.9805 18.6932 63.9805 24.9115C63.9805 31.2226 68.4499 35.8631 74.7351 35.8631Z" fill="black"/>
<rect x="307.428" y="8.62549" width="5.66615" height="32.549" fill="black"/>
<path d="M226.269 49.9518V17.6193H232.019V20.6195H232.334C232.963 19.6344 235.119 17.0371 239.432 17.0371C246.036 17.0371 250.574 21.9629 250.574 29.3069C250.574 36.6508 246.081 41.7558 239.612 41.7558C235.434 41.7558 233.187 39.4272 232.423 38.1286H232.109V49.9518H226.269ZM238.309 36.4717C242.083 36.4717 244.643 33.561 244.643 29.3964C244.643 25.0975 242.083 22.3212 238.264 22.3212C234.4 22.3212 231.974 25.411 231.974 29.3964C231.974 33.7849 234.67 36.4717 238.309 36.4717Z" fill="black"/>
<path d="M0 49.9989C5.56919 40.3945 10.3015 32.4736 16.3164 21.6174C18.441 17.9541 22.1123 15.6777 26.6444 15.6777H33.7657L13.8786 49.9989H0Z" fill="#2E99FF"/>
<path d="M0.0634766 0H42.7944L35.4932 12.6888H0.0634766V0Z" fill="#4F56FA"/>
<path d="M21.4672 42.0965C23.0741 39.2651 25.6571 37.506 29.2749 37.506L42.8022 37.4692V50H16.8828C18.5056 47.2259 19.9147 44.8321 21.4672 42.0965Z" fill="#09C2FF"/>
</svg>
