<svg width="24" height="24" viewBox="0 0 24 24" fill="none" xmlns="http://www.w3.org/2000/svg">
<path d="M22 5.82959C21.2562 6.13989 20.4637 6.34551 19.6375 6.44535C20.4875 5.96273 21.1362 5.20424 21.4412 4.29008C20.6487 4.73946 19.7737 5.05682 18.8412 5.23398C18.0888 4.47199 17.0162 4 15.8463 4C13.5762 4 11.7487 5.75228 11.7487 7.90049C11.7487 8.2096 11.7763 8.50681 11.8438 8.78975C8.43503 8.63163 5.41874 7.07784 3.39251 4.71092C3.03878 5.29464 2.83129 5.96273 2.83129 6.68198C2.83129 8.03245 3.56252 9.22962 4.65248 9.9227C3.99375 9.9108 3.34748 9.72889 2.79996 9.44238C2.79996 9.45428 2.79996 9.46974 2.79996 9.4852C2.79996 11.3801 4.22126 12.9541 6.08501 13.3167C5.75122 13.4035 5.38749 13.4451 5.00998 13.4451C4.74754 13.4451 4.48247 13.4309 4.23372 13.3786C4.76501 14.9228 6.2725 16.0582 8.06499 16.095C6.67002 17.1328 4.89877 17.7582 2.98121 17.7582C2.645 17.7582 2.3225 17.7439 2 17.7046C3.81627 18.8186 5.96872 19.4545 8.29003 19.4545C15.835 19.4545 19.96 13.5105 19.96 8.3582C19.96 8.18581 19.9538 8.01936 19.945 7.8541C20.7587 7.30488 21.4425 6.61894 22 5.82959Z" fill="#9DA3AF"/>
</svg>
