<svg width="20" height="20" viewBox="0 0 20 20" fill="none" xmlns="http://www.w3.org/2000/svg">
<path fill-rule="evenodd" clip-rule="evenodd" d="M10.959 6.21214C10.0689 6.21214 9.34353 5.48693 9.34353 4.59518C9.34353 3.70486 10.0689 2.97982 10.959 2.97982C11.8507 2.97982 12.5759 3.70486 12.5759 4.59518C12.5759 5.48693 11.8507 6.21214 10.959 6.21214ZM10.0001 1.66669C5.39772 1.66669 1.66675 5.3977 1.66675 9.99993C1.66675 11.9568 2.34283 13.7548 3.47191 15.1767C4.38171 13.8999 5.35337 12.6958 6.5728 11.6928C6.60779 11.6639 6.692 11.6022 6.79894 11.5243C7.30623 11.1442 7.66168 10.5875 7.75815 9.96116V9.9507C8.06634 7.91901 8.90022 7.21876 11.2175 7.21876C11.4229 7.21876 11.6426 7.22489 11.8727 7.23499C13.0581 7.29054 13.7421 7.62957 13.8221 7.80612C13.8674 7.90278 13.8655 8.00756 13.8448 8.108L13.7523 8.09574C13.0211 8.00539 11.8932 8.22937 11.7371 9.02628C11.6489 9.48037 11.7537 9.97956 11.7966 10.4376C11.8419 10.9101 11.883 11.3867 11.879 11.8634C11.8769 11.9003 11.8502 12.0852 11.8748 12.1056C10.6136 10.8978 7.69647 12.4138 6.7782 13.0794C6.87288 13.0485 6.96737 13.0136 7.06188 12.9787C7.93687 12.6808 10.595 11.8838 11.6201 12.7651C12.4889 13.8292 11.7064 15.7932 11.0594 16.7668C10.6717 17.3523 10.2077 17.8661 9.69262 18.3256C9.79487 18.3294 9.89694 18.3334 10.0001 18.3334C14.6024 18.3334 18.3334 14.6025 18.3334 9.99993C18.3334 5.3977 14.6024 1.66669 10.0001 1.66669Z" fill="#6C6F88"/>
</svg>
