<svg width="24" height="24" viewBox="0 0 24 24" fill="none" xmlns="http://www.w3.org/2000/svg">
<path d="M12 3C7.0275 3 3 6.90255 3 11.7157C3 15.5672 5.5785 18.8334 9.15375 19.985C9.60375 20.067 9.76875 19.7972 9.76875 19.5659C9.76875 19.3589 9.76125 18.8105 9.7575 18.0839C7.254 18.6095 6.726 16.9147 6.726 16.9147C6.3165 15.9087 5.72475 15.6397 5.72475 15.6397C4.9095 15.0994 5.78775 15.1105 5.78775 15.1105C6.6915 15.1711 7.16625 16.0085 7.16625 16.0085C7.96875 17.3411 9.273 16.9561 9.7875 16.7336C9.8685 16.1696 10.1003 15.786 10.3575 15.568C8.35875 15.3499 6.258 14.6005 6.258 11.2611C6.258 10.3099 6.60675 9.53234 7.18425 8.92256C7.083 8.70231 6.77925 7.8161 7.263 6.61577C7.263 6.61577 8.01675 6.38221 9.738 7.50937C10.458 7.31572 11.223 7.21963 11.988 7.2152C12.753 7.21963 13.518 7.31572 14.238 7.50937C15.948 6.38221 16.7017 6.61577 16.7017 6.61577C17.1855 7.8161 16.8817 8.70231 16.7917 8.92256C17.3655 9.53234 17.7142 10.3099 17.7142 11.2611C17.7142 14.6093 15.6105 15.3463 13.608 15.5606C13.923 15.8222 14.2155 16.3566 14.2155 17.1734C14.2155 18.3397 14.2043 19.2769 14.2043 19.56C14.2043 19.7884 14.3617 20.0611 14.823 19.9739C18.4238 18.8297 21 15.5613 21 11.7157C21 6.90255 16.9702 3 12 3V3Z" fill="#9DA3AF"/>
</svg>
