<svg width="17" height="16" viewBox="0 0 17 16" fill="none" xmlns="http://www.w3.org/2000/svg">
<path d="M2.78341 8.78558C2.61793 7.48316 2.86881 6.16176 3.50007 5.01058C3.99311 4.10886 4.7129 3.35141 5.58832 2.81305C6.44917 2.28468 7.43708 1.99926 8.44716 1.98706C9.45691 1.97711 10.4504 2.24105 11.3222 2.75079L12.6422 2.04931C11.6007 1.25693 10.3547 0.778222 9.05058 0.669406C7.75058 0.564364 6.44769 0.835064 5.29712 1.44931C4.12798 2.07584 3.15536 3.01416 2.48732 4.1601C1.70923 5.48979 1.35411 7.02475 1.46919 8.56108C1.48851 8.82333 1.43274 9.08575 1.30841 9.3175C1.18439 9.54783 0.998115 9.73416 0.772623 9.85425L0.166748 10.1762V11.6787L16.8334 2.82137V1.31991L2.78341 8.78558ZM16.8334 4.32431L3.67655 11.3105L0.166748 13.1767V14.6777L14.2202 7.20958C14.253 7.47233 14.2692 7.7365 14.2692 8.00133C14.2697 9.04733 14.0065 10.0765 13.504 10.9939C13.0104 11.8967 12.2896 12.6549 11.4127 13.1934C10.5507 13.722 9.56133 14.0069 8.55008 14.0179C7.54325 14.0277 6.55154 13.7626 5.67312 13.2488L5.60251 13.288L4.35742 13.9498C5.39861 14.7422 6.64431 15.221 7.94808 15.3302C9.24816 15.4354 10.5509 15.1649 11.7016 14.5507C12.8707 13.9249 13.8433 12.9872 14.5118 11.8419C15.2912 10.5109 15.6467 8.97408 15.531 7.43608C15.5117 7.174 15.5676 6.91183 15.6917 6.68025C15.8132 6.45241 15.9996 6.26562 16.227 6.14346L16.8334 5.82137V4.32431Z" fill="#6C6F88"/>
</svg>
