<svg width="20" height="21" viewBox="0 0 20 21" fill="none" xmlns="http://www.w3.org/2000/svg">
<path d="M14.2159 13.9924L8.8076 19.4018L8.04997 20.1595C7.80354 20.009 7.57371 19.8274 7.36445 19.6182L7.10254 19.3562L7.83142 18.6274L13.3417 13.118C14.0015 12.4581 14.2604 11.5242 14.0345 10.6201C13.8087 9.71493 13.1428 9.01194 12.2509 8.73875L10.2457 8.12335L10.3282 8.04084L11.2354 7.13367L12.6148 7.55639C13.925 7.95855 14.9045 8.99247 15.2354 10.3224C15.5653 11.6523 15.185 13.0244 14.2159 13.9924Z" fill="#6C6F88"/>
<path d="M12.8364 12.5493L7.29511 18.0916L6.56623 18.8205L5.69092 17.9452L6.4198 17.2163L11.9621 11.6751C12.0312 11.605 12.0827 11.5266 12.1148 11.4399C12.1652 11.3079 12.1725 11.1648 12.1353 11.0254C12.128 10.9975 12.1188 10.9708 12.1086 10.9449C12.0303 10.7511 11.8672 10.6066 11.6602 10.5511L8.62811 9.74084L8.71261 9.65634L9.55386 8.81509L9.63836 8.73059L11.9796 9.35528C12.6466 9.53468 13.1507 10.0388 13.3301 10.7049C13.5084 11.3718 13.3239 12.0615 12.8364 12.5493Z" fill="#6C6F88"/>
<path d="M18.9083 8.07306L14.3103 3.47505L13.435 2.59973L12.6371 1.80184C12.4279 1.59258 12.1969 1.41119 11.9505 1.26055C11.37 0.901748 10.7 0.709961 9.99989 0.709961C9.00401 0.709961 8.06787 1.09752 7.36376 1.80162L1.09166 8.07306C0.387555 8.77827 0 9.71442 0 10.7103C0 11.7062 0.387555 12.6423 1.09166 13.3475L5.69077 17.9455L6.41965 17.2167L1.82053 12.6175C1.31132 12.1083 1.03083 11.431 1.03083 10.7103C1.03083 9.9896 1.31132 9.31226 1.82053 8.80305L8.09286 2.53072C8.60208 2.0215 9.27942 1.74101 10.0001 1.74101C10.0424 1.74101 10.0846 1.74211 10.126 1.7441H10.1384C10.1817 1.7461 10.2249 1.7503 10.2682 1.7545C10.3032 1.7576 10.3383 1.7618 10.3724 1.76689C10.3786 1.76689 10.3837 1.76799 10.389 1.76888C10.4025 1.76999 10.4149 1.77198 10.427 1.77397C10.46 1.77906 10.4921 1.78525 10.5239 1.79144C10.5301 1.79255 10.5352 1.79343 10.5414 1.79454C10.5733 1.80184 10.6042 1.80892 10.6363 1.81622C10.6662 1.82352 10.696 1.8306 10.7259 1.83989C10.7414 1.84409 10.7577 1.84807 10.7732 1.85338C10.7969 1.86068 10.8206 1.86776 10.8445 1.87617C10.8909 1.89165 10.9383 1.90802 10.9836 1.9266C11.0073 1.9339 11.0301 1.94319 11.0526 1.95447C11.0763 1.96376 11.1 1.97416 11.1227 1.98544C11.1464 1.99584 11.1692 2.00712 11.1918 2.0184L5.78457 7.4278C4.81546 8.39691 4.43498 9.76906 4.76591 11.099C5.09683 12.4289 6.07612 13.463 7.38655 13.8649L8.766 14.2877L8.84851 14.2051L9.75568 13.298L7.74955 12.6815C6.85786 12.4083 6.1907 11.7051 5.96596 10.8001C5.74121 9.89492 6.00002 8.96187 6.65878 8.30223L12.169 2.79285L12.1617 2.78555L12.7061 3.32994L7.16379 8.87228C6.67625 9.35982 6.49154 10.0487 6.67006 10.7156C6.84946 11.3825 7.35359 11.8867 8.02053 12.0641L10.3629 12.691L11.3731 11.6807L8.34017 10.8693C8.13401 10.8147 7.97208 10.6705 7.89267 10.4765C7.88139 10.4506 7.8721 10.4238 7.8648 10.396C7.82764 10.2557 7.83494 10.1124 7.88537 9.98053C7.91944 9.89404 7.97098 9.81551 8.03889 9.74649L13.5812 4.20526L18.1792 8.80327C18.6885 9.31249 18.969 9.98982 18.969 10.7105C18.969 11.4312 18.6885 12.1085 18.1792 12.6178L11.9069 18.8901C11.3977 19.3993 10.7204 19.6798 9.99967 19.6798C9.95742 19.6798 9.91517 19.6787 9.8738 19.6767H9.86141C9.82845 19.6747 9.79638 19.6725 9.76453 19.6694C9.75324 19.6683 9.74285 19.6674 9.73157 19.6663C9.69971 19.6632 9.66874 19.6601 9.63667 19.655C9.63158 19.655 9.62627 19.6539 9.62118 19.653C9.60769 19.6519 9.59331 19.6499 9.57893 19.6479C9.54288 19.6418 9.5077 19.6356 9.47275 19.6294C9.46767 19.6274 9.46236 19.6263 9.45837 19.6263C9.42652 19.619 9.39445 19.6119 9.36348 19.6046C9.33361 19.5973 9.30375 19.5902 9.27389 19.5809C9.25332 19.5758 9.23363 19.5696 9.21416 19.5643C9.17921 19.5539 9.14404 19.5427 9.10997 19.5303C9.09958 19.5261 9.0894 19.523 9.079 19.519C9.07591 19.5179 9.07392 19.517 9.07082 19.5159C9.04096 19.5055 9.01198 19.4942 8.98322 19.4818C8.97083 19.4776 8.95845 19.4714 8.94606 19.4663C8.90381 19.4478 8.86156 19.4292 8.81931 19.4086C8.8151 19.4066 8.81112 19.4044 8.80692 19.4024L8.04928 20.16C8.62973 20.5188 9.29977 20.7106 9.99989 20.7106C10.9958 20.7106 11.9319 20.3231 12.6371 19.619L18.9083 13.3477C19.6124 12.6425 20 11.7064 20 10.7105C20 9.71464 19.6124 8.77849 18.9083 8.07328V8.07306Z" fill="#6C6F88"/>
</svg>
