<svg width="21" height="20" viewBox="0 0 21 20" fill="none" xmlns="http://www.w3.org/2000/svg">
<path d="M2.5 10.0219C2.5 10.0052 2.5 9.98852 2.5 9.97185C2.50313 9.96125 2.50816 9.951 2.50921 9.94023C2.51216 9.90844 2.5139 9.87665 2.51529 9.84468C2.52536 9.62474 2.55871 9.40846 2.61603 9.19599C2.75917 8.66509 3.02719 8.20611 3.41524 7.81766C4.47587 6.75638 5.53772 5.69631 6.59887 4.63555C7.18443 4.0501 7.76929 3.46395 8.35553 2.8792C8.61991 2.61548 8.92493 2.41049 9.26626 2.25917C9.59803 2.1122 9.94579 2.02864 10.3073 2.00606C10.4566 1.99668 10.6069 1.99824 10.7568 2.0104C10.898 2.02187 11.038 2.04115 11.176 2.07242C11.7506 2.20289 12.2508 2.47303 12.6677 2.8891C14.3155 4.53427 15.9611 6.18153 17.6075 7.82826C17.8401 8.06105 18.0299 8.32494 18.1778 8.61905C18.4322 9.12546 18.5285 9.66314 18.4928 10.2262C18.4809 10.4162 18.448 10.6037 18.3987 10.7878C18.2564 11.3205 17.9893 11.7815 17.6 12.171C15.9867 13.7856 14.3723 15.3995 12.7582 17.0136C12.716 17.0558 12.6736 17.0979 12.6305 17.1392C12.3038 17.4522 11.9265 17.6828 11.4982 17.8287C11.2463 17.9145 10.9875 17.9673 10.7215 17.983C10.6745 17.9858 10.6274 17.9889 10.5803 17.9925C10.5711 17.9932 10.5621 17.9974 10.5529 18H10.4612C10.4542 17.9976 10.4474 17.9932 10.4403 17.9929C10.3877 17.9891 10.3351 17.9856 10.2824 17.9828C10.1339 17.9746 9.98713 17.9527 9.84226 17.9204C9.42659 17.8277 9.04496 17.6583 8.70172 17.4055C8.6147 17.3414 8.52906 17.274 8.4502 17.2002C8.31037 17.0692 8.1761 16.9321 8.03957 16.7975C8.03592 16.7938 8.03331 16.789 8.02897 16.7827C8.0413 16.77 8.05259 16.758 8.06423 16.7464C9.35537 15.4558 10.6467 14.1652 11.938 12.8744C12.2908 12.5218 12.6434 12.1691 12.996 11.8163C13.0235 11.7888 13.0511 11.7612 13.0771 11.7325C13.4605 11.3097 13.6325 10.8148 13.5823 10.2448C13.5609 10.0014 13.4937 9.77015 13.3822 9.553C13.1341 9.07022 12.748 8.74848 12.2312 8.58657C11.6957 8.41892 11.1582 8.25684 10.6217 8.09232C10.5942 8.08398 10.5671 8.07443 10.5442 8.06696C10.8794 7.73167 11.2138 7.39742 11.551 7.06005C11.5555 7.06144 11.5675 7.06491 11.5795 7.06856C11.9201 7.1728 12.2607 7.27651 12.601 7.38161C13.1374 7.54735 13.6026 7.83017 13.9866 8.24068C14.4999 8.7893 14.7777 9.4432 14.8421 10.1893C14.8619 10.4185 14.8522 10.6471 14.8204 10.8749C14.7733 11.2119 14.6736 11.5324 14.5223 11.837C14.3671 12.1493 14.1649 12.4283 13.9184 12.6748C12.5717 14.0221 11.2248 15.3689 9.87787 16.7158C9.8671 16.7266 9.85581 16.737 9.84573 16.7485C9.83983 16.7551 9.83566 16.7633 9.82888 16.7733C9.84764 16.7806 9.86276 16.7874 9.87822 16.7926C10.0448 16.8484 10.2161 16.8817 10.3912 16.8915C10.6102 16.9038 10.8261 16.881 11.0379 16.8218C11.3741 16.7276 11.6641 16.5541 11.9105 16.3076C13.5454 14.6728 15.1802 13.0381 16.8147 11.4028C17.1465 11.0708 17.3424 10.6725 17.3928 10.2041C17.4154 9.99391 17.4048 9.78544 17.3601 9.57888C17.2771 9.19495 17.093 8.86678 16.8157 8.58969C15.6691 7.44329 14.5227 6.29653 13.3762 5.15012C13.3655 5.13935 13.3549 5.12823 13.3438 5.11781C13.336 5.11051 13.3271 5.10409 13.317 5.09592C13.3052 5.10687 13.295 5.11607 13.2854 5.1258C12.4509 5.95951 11.6165 6.79321 10.7822 7.62709C10.219 8.18995 9.65622 8.753 9.09342 9.31604C9.07779 9.33167 9.06216 9.34765 9.04774 9.36451C8.96801 9.45866 8.93883 9.56742 8.96506 9.68729C8.99876 9.84016 9.09325 9.94023 9.24489 9.9814C9.50562 10.0523 9.7667 10.1212 10.0278 10.1911C10.5967 10.3434 11.1654 10.4958 11.7342 10.6482C11.7433 10.6506 11.7521 10.6541 11.7584 10.6561C11.4164 10.9982 11.0749 11.3398 10.7313 11.6834C10.724 11.6816 10.7118 11.6792 10.6997 11.6761C10.1108 11.5183 9.5216 11.3613 8.93292 11.2029C8.43908 11.07 8.07535 10.7765 7.85457 10.3139C7.71023 10.0115 7.66367 9.69128 7.71457 9.35982C7.76807 9.0115 7.91936 8.70974 8.16845 8.46044C9.56972 7.05779 10.9718 5.65601 12.3738 4.25405C12.3846 4.24328 12.3959 4.23286 12.4059 4.22139C12.412 4.21462 12.4167 4.20645 12.4174 4.20541C12.3451 4.13314 12.2757 4.06382 12.2034 3.99156C12.1963 3.99833 12.1852 4.00823 12.1746 4.01866C11.4718 4.72068 10.769 5.4227 10.0663 6.12507C9.37448 6.81649 8.68296 7.50826 7.99145 8.20003C7.84311 8.34856 7.71908 8.51499 7.62511 8.70314C7.44724 9.05875 7.3854 9.43347 7.4396 9.82748C7.4693 10.0439 7.53218 10.2505 7.63275 10.4442C7.87907 10.9188 8.25861 11.2388 8.76773 11.3995C9.32549 11.5755 9.88551 11.7444 10.4445 11.9163C10.4587 11.9207 10.4726 11.9259 10.4909 11.9322C10.4792 11.9447 10.4714 11.9539 10.4627 11.9624C10.1485 12.2768 9.83409 12.5913 9.51969 12.9057C9.5157 12.9097 9.51135 12.9132 9.50805 12.9175C9.4945 12.9349 9.4787 12.942 9.45751 12.9307C9.4516 12.9276 9.4443 12.9267 9.4377 12.9248C9.10506 12.823 8.77259 12.7205 8.43978 12.6194C7.82557 12.433 7.30654 12.1003 6.89677 11.6049C6.43785 11.05 6.20092 10.4077 6.16392 9.69059C6.15089 9.43712 6.17139 9.18522 6.22228 8.93662C6.34996 8.31434 6.63709 7.7758 7.08524 7.32637C8.43422 5.97375 9.78563 4.62339 11.136 3.27199C11.1468 3.26122 11.1577 3.25045 11.1681 3.23933C11.1727 3.23446 11.1761 3.22838 11.1813 3.22109C11.1727 3.21622 11.1661 3.21118 11.1586 3.20858C10.9463 3.13197 10.7266 3.09722 10.5016 3.09705C10.3948 3.09705 10.2885 3.10608 10.1827 3.12363C9.96177 3.16046 9.75315 3.23221 9.55686 3.33974C9.38386 3.43459 9.2303 3.55499 9.09099 3.69431C7.47903 5.30665 5.86671 6.91899 4.25475 8.53115C4.21931 8.56659 4.1837 8.60168 4.14983 8.63834C3.71036 9.11538 3.53805 9.67686 3.63498 10.3163C3.69855 10.7355 3.89015 11.0939 4.19013 11.394C5.33866 12.5424 6.48701 13.6909 7.63553 14.8396C7.64735 14.8514 7.65881 14.8634 7.67114 14.8747C7.67896 14.8818 7.68782 14.8879 7.69772 14.8955C7.7137 14.8801 7.72794 14.8669 7.74149 14.8532C9.13754 13.4571 10.5336 12.0609 11.9295 10.6648C11.9364 10.6579 11.9434 10.6511 11.9501 10.6442C12.1423 10.4452 12.0639 10.1117 11.8028 10.02C11.7702 10.0085 11.7363 10.001 11.7028 9.99217C10.9451 9.78961 10.1874 9.58705 9.42989 9.38431C9.37534 9.36972 9.32115 9.35443 9.26053 9.33793C9.27338 9.32368 9.28189 9.31343 9.29127 9.30405C9.61245 8.98266 9.93397 8.66162 10.2545 8.3397C10.2769 8.31712 10.2967 8.31156 10.3276 8.31973C10.9166 8.47747 11.5062 8.63295 12.095 8.79139C12.4525 8.88746 12.7495 9.07925 12.9738 9.37476C13.2463 9.73402 13.3552 10.1407 13.3028 10.5891C13.2712 10.8594 13.1723 11.104 13.0167 11.3267C12.9373 11.4403 12.8399 11.5371 12.7428 11.6344C11.1092 13.2686 9.4754 14.9023 7.84155 16.5362C7.83199 16.5458 7.82157 16.5546 7.80924 16.5661C7.79395 16.5511 7.78005 16.5379 7.76651 16.5244C6.31643 15.0743 4.86653 13.6241 3.41628 12.174C3.05585 11.8137 2.79825 11.3912 2.64713 10.9042C2.59276 10.7289 2.55315 10.55 2.53439 10.3672C2.52362 10.2623 2.51772 10.157 2.50903 10.0519C2.50816 10.0415 2.50313 10.0321 2.5 10.0219Z" fill="#6C6F88"/>
</svg>
