<svg width="20" height="21" viewBox="0 0 20 21" fill="none" xmlns="http://www.w3.org/2000/svg">
<path d="M7.9896 12.6811L9.99573 13.2976L9.08856 14.2048L9.00605 14.2873L7.6266 13.8646C6.31617 13.4624 5.33689 12.4285 5.00596 11.0986C4.67504 9.76872 5.05551 8.39657 6.02462 7.42747L11.4318 2.01807C11.4484 2.02537 11.4648 2.03355 11.4803 2.04284C11.4968 2.05103 11.5132 2.06032 11.5287 2.06872C11.5566 2.0831 11.5833 2.09969 11.6112 2.11518C11.638 2.13066 11.6647 2.14703 11.6917 2.16473C11.7134 2.17822 11.734 2.19149 11.7546 2.20587C11.7751 2.21936 11.7957 2.23374 11.8165 2.24923C11.8362 2.26272 11.8545 2.2771 11.8731 2.29148C11.8897 2.30276 11.9061 2.31625 11.9216 2.32953C11.9359 2.33992 11.9494 2.3512 11.9627 2.36359C11.9647 2.3647 11.9669 2.36558 11.9689 2.3678C12.0308 2.41934 12.0895 2.47287 12.1472 2.5306L12.4091 2.79251L6.89883 8.3019C6.24008 8.96176 5.98127 9.89459 6.20601 10.7998C6.43076 11.7049 7.0977 12.4079 7.9896 12.6811Z" fill="#1A1A1A"/>
<path d="M8.58025 10.869L11.6132 11.6804L10.603 12.6906L8.26061 12.0637C7.59367 11.8863 7.08954 11.3822 6.91014 10.7153C6.73185 10.0483 6.91633 9.35948 7.40387 8.87193L12.9462 3.32959L13.8215 4.20491L8.27919 9.74615C8.21106 9.81516 8.15952 9.89347 8.12567 9.98018C8.07524 10.1122 8.06794 10.2554 8.1051 10.3956C8.1124 10.4235 8.12169 10.4502 8.13297 10.4761C8.21238 10.6699 8.37431 10.8144 8.58047 10.869H8.58025Z" fill="#1A1A1A"/>
<path d="M14.4556 13.9925L9.04735 19.4019L8.28972 20.1596C8.04329 20.0092 7.81346 19.8275 7.60419 19.6183L7.34229 19.3564L8.07116 18.6275L13.5814 13.1181C14.2413 12.4582 14.5001 11.5243 14.2743 10.6202C14.0484 9.71506 13.3826 9.01206 12.4907 8.73887L10.4854 8.12347L10.5679 8.04096L11.4751 7.13379L12.8545 7.55652C14.1648 7.95867 15.1443 8.99259 15.4752 10.3225C15.805 11.6524 15.4248 13.0245 14.4556 13.9925Z" fill="white"/>
<path d="M13.0761 12.5492L7.53486 18.0915L6.80598 18.8204L5.93066 17.9451L6.65954 17.2162L12.2019 11.675C12.2709 11.6048 12.3224 11.5265 12.3545 11.4398C12.405 11.3078 12.4123 11.1646 12.3751 11.0253C12.3678 10.9974 12.3585 10.9706 12.3483 10.9448C12.27 10.751 12.107 10.6065 11.8999 10.551L8.86785 9.74072L8.95235 9.65622L9.7936 8.81497L9.87811 8.73047L12.2194 9.35516C12.8863 9.53456 13.3904 10.0387 13.5698 10.7047C13.7481 11.3717 13.5636 12.0614 13.0761 12.5492Z" fill="white"/>
<path d="M19.2091 10.7103C19.2091 11.431 18.9286 12.1083 18.4194 12.6175L12.1471 18.8899C11.6378 19.3991 10.9605 19.6796 10.2398 19.6796C10.1976 19.6796 10.1553 19.6785 10.1139 19.6765H10.1016C10.0686 19.6745 10.0365 19.6723 10.0047 19.6692C9.99339 19.6681 9.98299 19.6672 9.97171 19.6661C9.93986 19.663 9.90889 19.6599 9.87682 19.6548C9.87173 19.6548 9.86642 19.6537 9.86133 19.6528C9.84784 19.6517 9.83346 19.6497 9.81908 19.6477C9.78302 19.6415 9.74785 19.6353 9.7129 19.6291C9.70781 19.6271 9.7025 19.626 9.69852 19.626C9.66667 19.6187 9.63459 19.6117 9.60362 19.6044C9.57376 19.5971 9.5439 19.59 9.51404 19.5807C9.49346 19.5756 9.47378 19.5694 9.45431 19.5641C9.41936 19.5537 9.38419 19.5424 9.35012 19.53C9.33972 19.5258 9.32955 19.5227 9.31915 19.5187C9.31605 19.5176 9.31406 19.5168 9.31097 19.5156C9.2811 19.5053 9.25213 19.494 9.22337 19.4816C9.21098 19.4774 9.19859 19.4712 9.18621 19.4661C9.14396 19.4475 9.10171 19.4289 9.05945 19.4084C9.05525 19.4064 9.05127 19.4042 9.04707 19.4022L14.4554 13.9928C15.4245 13.0248 15.8049 11.6526 15.4749 10.3227C15.144 8.99282 14.1645 7.95868 12.8543 7.55675L11.4748 7.13402L10.5676 8.04119L10.4851 8.1237L12.4904 8.7391C13.3821 9.01229 14.0481 9.71529 14.274 10.6205C14.4998 11.5245 14.241 12.4587 13.5811 13.1183L8.07088 18.6277L7.342 19.3566L6.80602 18.8206L7.5349 18.0917L13.0761 12.5494C13.5637 12.0619 13.7484 11.3721 13.5699 10.705C13.3905 10.0389 12.8863 9.53478 12.2194 9.35538L9.87814 8.73069L9.79364 8.81519L8.95239 9.65645L8.86789 9.74095L11.9 10.5512C12.1072 10.607 12.2701 10.7512 12.3484 10.945C12.3588 10.9709 12.3681 10.9976 12.3751 11.0255C12.4123 11.1646 12.405 11.308 12.3546 11.44C12.3227 11.5265 12.2709 11.6051 12.2019 11.6752L6.65958 17.2164L2.06046 12.6173C1.55124 12.1081 1.27075 11.4307 1.27075 10.7101C1.27075 9.98936 1.55124 9.31202 2.06046 8.80281L8.33279 2.53092C8.84201 2.0217 9.51934 1.74121 10.24 1.74121C10.2823 1.74121 10.3245 1.74232 10.3659 1.74431H10.3783C10.4216 1.7463 10.4648 1.7505 10.5081 1.7547C10.5431 1.7578 10.5783 1.762 10.6123 1.76709C10.6185 1.76709 10.6236 1.7682 10.6289 1.76908C10.6424 1.77019 10.6548 1.77218 10.667 1.77417C10.6999 1.77926 10.732 1.78545 10.7639 1.79165C10.77 1.79275 10.7751 1.79364 10.7813 1.79474C10.8132 1.80204 10.8442 1.80912 10.8762 1.81642C10.9061 1.82372 10.936 1.8308 10.9658 1.84009C10.9813 1.84429 10.9977 1.84828 11.0132 1.85358C11.0368 1.86088 11.0605 1.86796 11.0844 1.87637C11.1308 1.89185 11.1782 1.90822 11.2235 1.9268C11.2472 1.9341 11.27 1.94339 11.2925 1.95468C11.3162 1.96397 11.3399 1.97436 11.3627 1.98564C11.3863 1.99604 11.4091 2.00732 11.4317 2.0186L6.02449 7.428C5.05538 8.39711 4.67491 9.76926 5.00583 11.0992C5.33676 12.4291 6.31604 13.4632 7.62648 13.8651L9.00592 14.2879L9.08843 14.2053L9.9956 13.2982L7.98948 12.6817C7.09779 12.4085 6.43063 11.7053 6.20588 10.8003C5.98114 9.89513 6.23995 8.96208 6.8987 8.30244L12.409 2.79305L12.9461 3.33014L7.40372 8.87249C6.91618 9.36003 6.73147 10.0489 6.90998 10.7158C7.08938 11.3827 7.59352 11.8869 8.26045 12.0643L10.6028 12.6912L11.6131 11.6809L8.5801 10.8695C8.37393 10.8149 8.21201 10.6707 8.1326 10.4767C8.12132 10.4508 8.11202 10.424 8.10472 10.3962C8.06756 10.2559 8.07486 10.1126 8.1253 9.98073C8.15936 9.89424 8.2109 9.81571 8.27881 9.7467L13.8212 4.20546L18.4192 8.80347C18.9284 9.31269 19.2089 9.99002 19.2089 10.7107L19.2091 10.7103Z" fill="#213147"/>
<path d="M19.1483 8.07306L14.5503 3.47505L13.675 2.59973L12.8771 1.80184C12.6678 1.59258 12.4369 1.41119 12.1905 1.26055C11.61 0.901748 10.94 0.709961 10.2399 0.709961C9.244 0.709961 8.30786 1.09752 7.60375 1.80162L1.33165 8.07306C0.627545 8.77827 0.23999 9.71442 0.23999 10.7103C0.23999 11.7062 0.627545 12.6423 1.33165 13.3475L5.93076 17.9455L6.65964 17.2167L2.06052 12.6175C1.55131 12.1083 1.27082 11.431 1.27082 10.7103C1.27082 9.9896 1.55131 9.31226 2.06052 8.80305L8.33285 2.53072C8.84207 2.0215 9.51941 1.74101 10.2401 1.74101C10.2824 1.74101 10.3246 1.74211 10.366 1.7441H10.3784C10.4217 1.7461 10.4648 1.7503 10.5082 1.7545C10.5432 1.7576 10.5783 1.7618 10.6124 1.76689C10.6186 1.76689 10.6237 1.76799 10.629 1.76888C10.6425 1.76999 10.6549 1.77198 10.667 1.77397C10.7 1.77906 10.7321 1.78525 10.7639 1.79144C10.7701 1.79255 10.7752 1.79343 10.7814 1.79454C10.8132 1.80184 10.8442 1.80892 10.8763 1.81622C10.9062 1.82352 10.936 1.8306 10.9659 1.83989C10.9814 1.84409 10.9977 1.84807 11.0132 1.85338C11.0369 1.86068 11.0606 1.86776 11.0844 1.87617C11.1309 1.89165 11.1782 1.90802 11.2236 1.9266C11.2473 1.9339 11.27 1.94319 11.2926 1.95447C11.3163 1.96376 11.3399 1.97416 11.3627 1.98544C11.3864 1.99584 11.4092 2.00712 11.4317 2.0184L6.02456 7.4278C5.05545 8.39691 4.67497 9.76906 5.0059 11.099C5.33682 12.4289 6.31611 13.463 7.62654 13.8649L9.00599 14.2877L9.0885 14.2051L9.99567 13.298L7.98954 12.6815C7.09785 12.4083 6.43069 11.7051 6.20595 10.8001C5.9812 9.89492 6.24001 8.96187 6.89877 8.30223L12.409 2.79285L12.4017 2.78555L12.9461 3.32994L7.40378 8.87228C6.91624 9.35982 6.73153 10.0487 6.91005 10.7156C7.08945 11.3825 7.59358 11.8867 8.26052 12.0641L10.6029 12.691L11.6131 11.6807L8.58016 10.8693C8.374 10.8147 8.21207 10.6705 8.13266 10.4765C8.12138 10.4506 8.11209 10.4238 8.10479 10.396C8.06763 10.2557 8.07493 10.1124 8.12536 9.98053C8.15943 9.89404 8.21097 9.81551 8.27888 9.74649L13.8212 4.20526L18.4192 8.80327C18.9285 9.31249 19.2089 9.98982 19.2089 10.7105C19.2089 11.4312 18.9285 12.1085 18.4192 12.6178L12.1469 18.8901C11.6377 19.3993 10.9604 19.6798 10.2397 19.6798C10.1974 19.6798 10.1552 19.6787 10.1138 19.6767H10.1014C10.0684 19.6747 10.0364 19.6725 10.0045 19.6694C9.99323 19.6683 9.98284 19.6674 9.97156 19.6663C9.9397 19.6632 9.90873 19.6601 9.87666 19.655C9.87157 19.655 9.86626 19.6539 9.86117 19.653C9.84768 19.6519 9.8333 19.6499 9.81892 19.6479C9.78287 19.6418 9.74769 19.6356 9.71274 19.6294C9.70766 19.6274 9.70235 19.6263 9.69836 19.6263C9.66651 19.619 9.63444 19.6119 9.60347 19.6046C9.5736 19.5973 9.54374 19.5902 9.51388 19.5809C9.49331 19.5758 9.47362 19.5696 9.45415 19.5643C9.4192 19.5539 9.38403 19.5427 9.34996 19.5303C9.33957 19.5261 9.32939 19.523 9.31899 19.519C9.3159 19.5179 9.31391 19.517 9.31081 19.5159C9.28095 19.5055 9.25197 19.4942 9.22321 19.4818C9.21082 19.4776 9.19844 19.4714 9.18605 19.4663C9.1438 19.4478 9.10155 19.4292 9.0593 19.4086C9.05509 19.4066 9.05111 19.4044 9.04691 19.4024L8.28928 20.16C8.86972 20.5188 9.53976 20.7106 10.2399 20.7106C11.2358 20.7106 12.1719 20.3231 12.8771 19.619L19.1483 13.3477C19.8524 12.6425 20.24 11.7064 20.24 10.7105C20.24 9.71464 19.8524 8.77849 19.1483 8.07328V8.07306Z" fill="#E3066E"/>
</svg>
