<?xml version="1.0" encoding="UTF-8"?>
<svg xmlns="http://www.w3.org/2000/svg" xmlns:xlink="http://www.w3.org/1999/xlink" width="19px" height="21px" viewBox="0 0 19 20" version="1.1">
<g id="surface1">
<path style=" stroke:none;fill-rule:nonzero;fill:rgb(96.078432%,5.098039%,70.588237%);fill-opacity:1;" d="M 15.445312 3.03125 C 15.472656 2.558594 15.539062 2.25 15.671875 1.964844 C 15.722656 1.851562 15.773438 1.761719 15.78125 1.761719 C 15.789062 1.761719 15.765625 1.84375 15.730469 1.945312 C 15.632812 2.21875 15.617188 2.597656 15.683594 3.035156 C 15.769531 3.59375 15.816406 3.671875 16.425781 4.273438 C 16.710938 4.554688 17.042969 4.910156 17.160156 5.0625 L 17.378906 5.339844 L 17.160156 5.140625 C 16.894531 4.898438 16.28125 4.425781 16.144531 4.359375 C 16.050781 4.3125 16.039062 4.316406 15.984375 4.367188 C 15.929688 4.417969 15.921875 4.492188 15.914062 4.847656 C 15.902344 5.398438 15.824219 5.753906 15.636719 6.105469 C 15.535156 6.296875 15.519531 6.257812 15.609375 6.042969 C 15.679688 5.878906 15.6875 5.808594 15.683594 5.273438 C 15.683594 4.203125 15.550781 3.945312 14.78125 3.503906 C 14.585938 3.390625 14.261719 3.230469 14.0625 3.144531 C 13.863281 3.058594 13.707031 2.984375 13.710938 2.976562 C 13.734375 2.957031 14.488281 3.167969 14.792969 3.28125 C 15.242188 3.449219 15.316406 3.472656 15.371094 3.453125 C 15.410156 3.4375 15.425781 3.335938 15.445312 3.03125 Z M 15.445312 3.03125 "/>
<path style=" stroke:none;fill-rule:nonzero;fill:rgb(96.078432%,5.098039%,70.588237%);fill-opacity:1;" d="M 5.910156 1.46875 C 5.644531 1.429688 5.632812 1.425781 5.757812 1.40625 C 6 1.371094 6.570312 1.417969 6.960938 1.507812 C 7.878906 1.71875 8.714844 2.257812 9.605469 3.214844 L 9.839844 3.46875 L 10.179688 3.417969 C 11.605469 3.195312 13.054688 3.371094 14.269531 3.914062 C 14.601562 4.0625 15.128906 4.359375 15.195312 4.433594 C 15.214844 4.457031 15.253906 4.613281 15.28125 4.78125 C 15.371094 5.355469 15.324219 5.800781 15.144531 6.128906 C 15.042969 6.308594 15.039062 6.367188 15.105469 6.519531 C 15.160156 6.640625 15.308594 6.734375 15.453125 6.734375 C 15.757812 6.730469 16.082031 6.261719 16.230469 5.609375 L 16.289062 5.347656 L 16.410156 5.476562 C 17.058594 6.1875 17.566406 7.152344 17.65625 7.84375 L 17.679688 8.023438 L 17.570312 7.859375 C 17.382812 7.578125 17.191406 7.386719 16.949219 7.234375 C 16.515625 6.953125 16.054688 6.859375 14.835938 6.796875 C 13.734375 6.742188 13.109375 6.652344 12.492188 6.457031 C 11.441406 6.125 10.910156 5.683594 9.660156 4.105469 C 9.105469 3.402344 8.761719 3.011719 8.421875 2.699219 C 7.648438 1.988281 6.886719 1.617188 5.910156 1.46875 Z M 5.910156 1.46875 "/>
<path style=" stroke:none;fill-rule:nonzero;fill:rgb(96.078432%,5.098039%,70.588237%);fill-opacity:1;" d="M 6.429688 4.871094 C 5.886719 4.148438 5.550781 3.042969 5.625 2.214844 L 5.644531 1.960938 L 5.769531 1.980469 C 6.003906 2.023438 6.402344 2.164062 6.589844 2.277344 C 7.105469 2.578125 7.328125 2.972656 7.554688 3.992188 C 7.621094 4.292969 7.707031 4.628906 7.746094 4.746094 C 7.8125 4.929688 8.054688 5.359375 8.253906 5.640625 C 8.398438 5.839844 8.300781 5.933594 7.988281 5.90625 C 7.503906 5.867188 6.851562 5.429688 6.429688 4.871094 Z M 6.429688 4.871094 "/>
<path style=" stroke:none;fill-rule:nonzero;fill:rgb(96.078432%,5.098039%,70.588237%);fill-opacity:1;" d="M 14.785156 10.246094 C 12.246094 9.257812 11.351562 8.402344 11.351562 6.957031 C 11.351562 6.742188 11.359375 6.570312 11.367188 6.570312 C 11.375 6.570312 11.476562 6.640625 11.585938 6.726562 C 12.101562 7.125 12.675781 7.292969 14.273438 7.519531 C 15.214844 7.652344 15.742188 7.757812 16.230469 7.914062 C 17.78125 8.410156 18.738281 9.417969 18.96875 10.789062 C 19.035156 11.1875 18.996094 11.933594 18.886719 12.328125 C 18.800781 12.636719 18.542969 13.199219 18.472656 13.21875 C 18.453125 13.226562 18.4375 13.15625 18.429688 13.058594 C 18.40625 12.542969 18.136719 12.042969 17.683594 11.667969 C 17.167969 11.242188 16.476562 10.902344 14.785156 10.246094 Z M 14.785156 10.246094 "/>
<path style=" stroke:none;fill-rule:nonzero;fill:rgb(96.078432%,5.098039%,70.588237%);fill-opacity:1;" d="M 13 10.652344 C 12.96875 10.472656 12.914062 10.238281 12.878906 10.136719 L 12.8125 9.949219 L 12.933594 10.078125 C 13.101562 10.261719 13.234375 10.492188 13.34375 10.796875 C 13.429688 11.03125 13.4375 11.101562 13.4375 11.484375 C 13.4375 11.859375 13.425781 11.9375 13.347656 12.148438 C 13.222656 12.480469 13.070312 12.71875 12.8125 12.972656 C 12.347656 13.425781 11.753906 13.679688 10.890625 13.785156 C 10.742188 13.800781 10.304688 13.832031 9.921875 13.851562 C 8.957031 13.898438 8.320312 14 7.75 14.195312 C 7.667969 14.222656 7.59375 14.238281 7.585938 14.230469 C 7.5625 14.207031 7.953125 13.984375 8.273438 13.835938 C 8.726562 13.625 9.175781 13.511719 10.1875 13.347656 C 10.6875 13.269531 11.203125 13.171875 11.332031 13.132812 C 12.570312 12.765625 13.203125 11.824219 13 10.652344 Z M 13 10.652344 "/>
<path style=" stroke:none;fill-rule:nonzero;fill:rgb(96.078432%,5.098039%,70.588237%);fill-opacity:1;" d="M 14.164062 12.648438 C 13.828125 11.949219 13.75 11.273438 13.9375 10.644531 C 13.957031 10.574219 13.988281 10.519531 14.007812 10.519531 C 14.027344 10.519531 14.105469 10.5625 14.183594 10.613281 C 14.339844 10.714844 14.652344 10.882812 15.480469 11.320312 C 16.519531 11.867188 17.109375 12.289062 17.511719 12.773438 C 17.863281 13.195312 18.082031 13.675781 18.1875 14.261719 C 18.246094 14.59375 18.210938 15.394531 18.121094 15.730469 C 17.84375 16.785156 17.195312 17.613281 16.273438 18.097656 C 16.136719 18.167969 16.015625 18.226562 16 18.226562 C 15.988281 18.226562 16.039062 18.105469 16.109375 17.957031 C 16.421875 17.332031 16.457031 16.722656 16.222656 16.042969 C 16.078125 15.625 15.785156 15.121094 15.191406 14.261719 C 14.503906 13.265625 14.335938 13 14.164062 12.648438 Z M 14.164062 12.648438 "/>
<path style=" stroke:none;fill-rule:nonzero;fill:rgb(96.078432%,5.098039%,70.588237%);fill-opacity:1;" d="M 4.625 16.425781 C 5.570312 15.65625 6.742188 15.113281 7.808594 14.945312 C 8.269531 14.871094 9.039062 14.902344 9.464844 15.007812 C 10.148438 15.175781 10.757812 15.554688 11.074219 16.003906 C 11.386719 16.445312 11.519531 16.828125 11.660156 17.679688 C 11.714844 18.015625 11.773438 18.355469 11.789062 18.429688 C 11.894531 18.875 12.097656 19.226562 12.347656 19.40625 C 12.75 19.6875 13.4375 19.703125 14.113281 19.449219 C 14.226562 19.40625 14.324219 19.375 14.332031 19.382812 C 14.359375 19.40625 14.015625 19.625 13.777344 19.742188 C 13.453125 19.898438 13.195312 19.957031 12.855469 19.957031 C 12.234375 19.957031 11.722656 19.652344 11.292969 19.035156 C 11.207031 18.914062 11.019531 18.546875 10.871094 18.222656 C 10.417969 17.226562 10.195312 16.921875 9.667969 16.589844 C 9.210938 16.300781 8.621094 16.25 8.175781 16.457031 C 7.59375 16.734375 7.429688 17.453125 7.847656 17.910156 C 8.015625 18.089844 8.324219 18.246094 8.578125 18.277344 C 9.050781 18.335938 9.457031 17.988281 9.457031 17.523438 C 9.457031 17.226562 9.339844 17.054688 9.039062 16.925781 C 8.628906 16.746094 8.1875 16.953125 8.1875 17.324219 C 8.191406 17.484375 8.261719 17.585938 8.425781 17.65625 C 8.53125 17.703125 8.535156 17.707031 8.449219 17.6875 C 8.070312 17.613281 7.984375 17.175781 8.285156 16.882812 C 8.648438 16.535156 9.402344 16.691406 9.660156 17.167969 C 9.769531 17.367188 9.78125 17.765625 9.6875 18.003906 C 9.472656 18.542969 8.859375 18.828125 8.230469 18.671875 C 7.804688 18.566406 7.632812 18.453125 7.117188 17.945312 C 6.226562 17.058594 5.878906 16.886719 4.59375 16.691406 L 4.347656 16.652344 Z M 4.625 16.425781 "/>
<path style=" stroke:none;fill-rule:evenodd;fill:rgb(96.078432%,5.098039%,70.588237%);fill-opacity:1;" d="M 0.4375 0.546875 C 3.417969 4.039062 5.472656 5.476562 5.699219 5.78125 C 5.890625 6.035156 5.816406 6.257812 5.496094 6.4375 C 5.316406 6.535156 4.945312 6.636719 4.761719 6.636719 C 4.554688 6.636719 4.480469 6.558594 4.480469 6.558594 C 4.359375 6.445312 4.292969 6.464844 3.671875 5.398438 C 2.804688 4.105469 2.082031 3.035156 2.0625 3.015625 C 2.019531 2.976562 2.019531 2.976562 3.582031 5.675781 C 3.835938 6.238281 3.632812 6.445312 3.632812 6.523438 C 3.632812 6.6875 3.585938 6.773438 3.378906 6.996094 C 3.03125 7.371094 2.875 7.789062 2.761719 8.660156 C 2.636719 9.632812 2.285156 10.324219 1.304688 11.5 C 0.734375 12.191406 0.640625 12.316406 0.492188 12.59375 C 0.3125 12.945312 0.261719 13.140625 0.242188 13.582031 C 0.21875 14.050781 0.261719 14.351562 0.410156 14.796875 C 0.539062 15.191406 0.675781 15.449219 1.019531 15.964844 C 1.320312 16.410156 1.492188 16.742188 1.492188 16.871094 C 1.492188 16.972656 1.511719 16.976562 1.972656 16.875 C 3.078125 16.632812 3.976562 16.210938 4.484375 15.691406 C 4.796875 15.367188 4.867188 15.191406 4.871094 14.75 C 4.871094 14.460938 4.863281 14.402344 4.78125 14.234375 C 4.648438 13.964844 4.410156 13.742188 3.882812 13.394531 C 3.191406 12.9375 2.898438 12.570312 2.816406 12.066406 C 2.75 11.652344 2.828125 11.359375 3.207031 10.585938 C 3.605469 9.785156 3.703125 9.445312 3.769531 8.636719 C 3.8125 8.117188 3.871094 7.910156 4.027344 7.746094 C 4.1875 7.574219 4.332031 7.515625 4.734375 7.464844 C 5.386719 7.378906 5.804688 7.214844 6.144531 6.910156 C 6.441406 6.648438 6.566406 6.394531 6.585938 6.011719 L 6.597656 5.71875 L 6.433594 5.535156 C 5.832031 4.859375 0.0390625 0.015625 0 0.015625 C -0.0078125 0.015625 0.191406 0.253906 0.4375 0.546875 Z M 1.828125 14.113281 C 1.960938 13.878906 1.890625 13.582031 1.664062 13.4375 C 1.449219 13.296875 1.117188 13.363281 1.117188 13.542969 C 1.117188 13.597656 1.148438 13.636719 1.21875 13.671875 C 1.335938 13.730469 1.347656 13.796875 1.253906 13.933594 C 1.15625 14.070312 1.164062 14.191406 1.273438 14.273438 C 1.449219 14.40625 1.699219 14.332031 1.828125 14.113281 Z M 1.828125 14.113281 "/>
<path style=" stroke:none;fill-rule:evenodd;fill:rgb(96.078432%,5.098039%,70.588237%);fill-opacity:1;" d="M 7.011719 7.617188 C 6.703125 7.707031 6.40625 8.019531 6.3125 8.347656 C 6.257812 8.550781 6.289062 8.902344 6.375 9.007812 C 6.511719 9.183594 6.640625 9.230469 7 9.230469 C 7.695312 9.222656 8.304688 8.933594 8.375 8.574219 C 8.433594 8.277344 8.164062 7.867188 7.796875 7.6875 C 7.609375 7.59375 7.207031 7.558594 7.011719 7.617188 Z M 7.828125 8.230469 C 7.933594 8.082031 7.886719 7.925781 7.703125 7.816406 C 7.355469 7.609375 6.828125 7.78125 6.828125 8.097656 C 6.828125 8.257812 7.101562 8.429688 7.355469 8.429688 C 7.523438 8.429688 7.753906 8.332031 7.828125 8.230469 Z M 7.828125 8.230469 "/>
</g>
</svg>
